<?xml version="1.0" standalone="no"?>
<!DOCTYPE svg PUBLIC "-//W3C//DTD SVG 20010904//EN"
 "http://www.w3.org/TR/2001/REC-SVG-20010904/DTD/svg10.dtd">
<svg version="1.0" xmlns="http://www.w3.org/2000/svg"
 width="700.000000pt" height="700.000000pt" viewBox="0 0 700.000000 700.000000"
 preserveAspectRatio="xMidYMid meet">
<metadata>
Created by potrace 1.14, written by Peter Selinger 2001-2017
</metadata>
<g transform="translate(0.000000,700.000000) scale(0.100000,-0.100000)"
fill="#000000" stroke="none">
<path d="M3659 6238 c0 -2 -2 -43 -3 -93 -5 -135 -16 -211 -42 -303 -29 -100
-62 -167 -143 -290 -82 -124 -116 -194 -146 -299 -67 -231 -20 -469 120 -610
56 -55 75 -65 75 -37 0 9 15 62 34 119 52 155 123 279 278 488 76 104 114 171
139 248 83 259 35 496 -136 664 -52 50 -83 72 -167 113 -5 2 -8 2 -9 0z"/>
<path d="M2919 5218 c0 -2 -2 -50 -3 -108 -5 -131 -31 -210 -110 -335 -95
-151 -125 -260 -105 -389 11 -68 40 -132 78 -173 34 -38 51 -42 51 -12 0 33
49 165 85 229 18 32 62 101 98 152 35 51 71 112 80 135 67 172 24 361 -104
463 -44 34 -67 47 -70 38z"/>
<path d="M4091 5133 c-1 -84 -3 -101 -17 -167 -10 -47 -52 -135 -95 -198 -80
-117 -110 -213 -105 -335 2 -67 8 -92 34 -145 17 -35 44 -76 60 -91 l28 -27
13 52 c26 105 65 185 156 323 96 147 119 193 130 266 18 119 -3 212 -69 307
-26 38 -106 102 -127 102 -4 0 -8 -39 -8 -87z"/>
<path d="M3378 4004 c-2 -1 -35 -4 -73 -5 -98 -3 -331 -33 -450 -59 -55 -11
-111 -23 -125 -26 -26 -5 -35 -8 -170 -50 -181 -57 -422 -165 -555 -248 -55
-35 -210 -139 -215 -145 -3 -3 -36 -31 -75 -62 -164 -133 -329 -316 -434 -484
-72 -114 -74 -117 -112 -195 -60 -124 -98 -234 -128 -375 -30 -137 -24 -342
12 -448 77 -223 229 -347 527 -431 30 -8 71 -18 90 -21 19 -4 40 -8 45 -9 6
-2 33 -6 60 -10 28 -4 59 -9 71 -11 11 -2 52 -6 90 -10 38 -3 84 -8 103 -11
36 -5 183 -12 386 -19 167 -6 1970 -6 2175 0 246 7 397 18 570 41 144 20 141
19 225 39 335 78 525 241 592 506 13 52 11 276 -4 359 -77 449 -407 910 -871
1222 -368 247 -812 396 -1322 444 -71 6 -407 13 -412 8z m377 -219 c122 -7
138 -9 142 -21 2 -5 -38 -79 -88 -164 -50 -85 -100 -171 -111 -190 -91 -158
-269 -429 -338 -515 l-32 -40 7 35 c56 282 227 882 257 901 5 3 22 5 36 3 15
-1 72 -5 127 -9z m-398 -10 c-8 -20 -91 -293 -122 -400 -21 -73 -62 -229 -70
-265 -2 -8 -13 -62 -25 -120 -31 -144 -33 -311 -5 -359 32 -55 68 -76 126 -74
101 3 202 102 392 388 48 72 90 135 95 141 4 5 13 21 21 35 8 13 39 65 70 114
103 169 234 394 268 463 9 17 24 32 32 32 22 0 201 -47 208 -54 3 -3 -14 -61
-39 -128 -182 -491 -249 -785 -204 -903 31 -80 101 -114 184 -90 73 22 159 94
277 230 33 39 62 72 65 75 16 14 180 233 273 363 l105 147 79 -58 c368 -275
624 -654 687 -1017 65 -372 -71 -552 -477 -634 -96 -20 -130 -25 -317 -46
-147 -16 -435 -20 -1480 -20 -1035 0 -1311 4 -1455 20 -22 3 -67 7 -100 10
-184 18 -380 67 -488 123 -172 89 -237 217 -223 442 11 206 88 415 233 636
172 260 445 505 737 659 l83 44 -33 -132 c-18 -73 -33 -133 -33 -135 0 -1 -2
-15 -5 -30 -53 -242 -74 -457 -53 -531 13 -44 50 -97 80 -112 12 -7 43 -12 69
-12 76 1 150 62 266 220 59 80 203 309 259 413 15 28 33 59 38 68 32 55 142
255 199 364 50 94 73 129 89 133 39 8 60 10 130 13 60 3 69 1 64 -13z m-501
-92 c-37 -73 -222 -404 -291 -521 -39 -66 -167 -257 -182 -272 -14 -13 -14
-10 -8 35 4 28 8 59 10 70 7 55 17 110 21 116 2 4 6 24 9 45 4 22 10 53 15 69
5 17 12 44 14 60 3 17 13 57 22 90 8 33 17 68 19 79 3 10 11 42 19 70 7 28 17
64 20 79 8 32 16 36 176 82 194 56 186 56 156 -2z m1856 -145 c59 -28 108 -55
108 -61 0 -5 -8 -19 -17 -32 -10 -12 -25 -33 -33 -45 -16 -23 -177 -244 -220
-301 -29 -38 -152 -186 -204 -244 l-36 -40 7 45 c14 101 130 468 229 723 9 24
31 19 166 -45z"/>
</g>
</svg>
